<?xml version="1.0" standalone="no"?>
<!DOCTYPE svg PUBLIC "-//W3C//DTD SVG 20010904//EN"
 "http://www.w3.org/TR/2001/REC-SVG-20010904/DTD/svg10.dtd">
<svg version="1.0" xmlns="http://www.w3.org/2000/svg"
 width="605.000000pt" height="543.000000pt" viewBox="0 0 605.000000 543.000000"
 preserveAspectRatio="xMidYMid meet">
<metadata>
Created by potrace 1.15, written by Peter Selinger 2001-2017
</metadata>
<g transform="translate(0.000000,543.000000) scale(0.100000,-0.100000)"
fill="#000000" stroke="none">
<path d="M124 5381 c-47 -22 -80 -59 -94 -110 -8 -25 -10 -832 -8 -2573 l3
-2536 30 -38 c17 -20 46 -45 65 -55 34 -18 128 -19 2888 -19 2544 0 2857 2
2889 15 48 20 71 41 94 87 18 36 19 104 19 2568 0 2255 -2 2535 -15 2567 -21
50 -42 72 -90 94 -39 18 -146 19 -2890 19 -2753 0 -2851 -1 -2891 -19z m5780
-34 c21 -12 47 -38 58 -57 18 -34 18 -115 16 -2577 l-3 -2542 -21 -28 c-11
-15 -36 -36 -55 -45 -32 -17 -190 -18 -2884 -18 -2694 0 -2852 1 -2884 18 -19
9 -44 30 -55 45 l-21 28 0 2552 0 2552 22 31 c12 17 37 38 55 47 30 15 278 17
2883 17 l2850 0 39 -23z"/>
<path d="M3004 5038 c-16 -13 -579 -501 -1252 -1086 -703 -611 -1227 -1074
-1233 -1088 -17 -46 -10 -75 25 -110 28 -28 42 -34 75 -34 38 0 52 10 263 193
123 107 664 577 1202 1045 539 469 982 852 986 852 3 0 159 -133 345 -296 187
-162 351 -300 365 -305 38 -16 86 -2 114 32 l26 31 0 289 0 289 215 0 215 0 0
-564 0 -563 23 -31 c19 -27 219 -203 994 -875 96 -82 118 -97 147 -97 79 0
128 57 110 127 -8 34 -63 85 -536 497 l-528 458 0 600 0 600 -29 29 -29 29
-356 0 c-234 0 -363 -4 -379 -11 -52 -24 -57 -49 -57 -283 0 -119 -2 -216 -5
-216 -3 0 -126 105 -273 233 -147 128 -280 242 -296 255 -38 29 -94 29 -132 0z"/>
<path d="M1656 3027 c-11 -8 -17 -23 -14 -38 l3 -24 1363 -3 c954 -1 1369 1
1383 9 14 7 19 18 17 37 l-3 27 -1366 3 c-1112 2 -1368 0 -1383 -11z"/>
<path d="M4420 2645 l0 -85 58 0 c100 0 92 62 92 -707 0 -601 -2 -672 -16
-684 -10 -8 -39 -13 -75 -12 l-59 1 0 -94 0 -94 325 0 325 0 0 93 0 92 -75 0
c-56 0 -78 4 -85 15 -6 8 -10 129 -10 276 l0 261 183 6 c135 4 203 11 262 26
70 18 160 54 175 71 3 3 18 15 33 27 48 37 90 104 128 203 22 57 24 293 3 360
-30 98 -47 130 -81 158 -19 15 -49 39 -66 55 -17 15 -35 27 -39 27 -3 0 -13 6
-20 13 -20 19 -57 35 -123 54 -52 15 -120 18 -497 21 l-438 3 0 -86z m766
-105 c24 -11 44 -27 44 -34 0 -7 8 -24 18 -37 39 -52 57 -284 32 -396 -17 -72
-52 -140 -80 -154 -15 -8 -78 -14 -162 -17 l-138 -4 0 331 0 331 121 0 c99 0
128 -3 165 -20z"/>
<path d="M2660 1845 l0 -865 165 0 165 0 0 508 0 507 20 -44 c11 -24 20 -54
20 -67 0 -12 4 -25 9 -28 5 -3 14 -30 21 -58 30 -136 35 -154 47 -173 7 -11
13 -31 13 -44 0 -14 6 -43 14 -66 8 -22 27 -85 42 -140 15 -55 31 -104 36
-110 4 -5 8 -21 8 -35 0 -14 7 -35 15 -46 8 -10 15 -31 15 -45 0 -14 3 -29 7
-33 11 -10 33 -79 33 -102 0 -30 15 -32 215 -34 168 -1 175 0 175 19 0 11 5
23 10 26 6 3 10 19 10 36 0 16 4 38 10 49 6 11 15 29 20 40 5 11 10 28 10 39
0 10 7 32 15 47 8 16 15 37 15 47 0 9 4 25 10 35 5 9 19 51 31 92 11 41 27 98
35 125 8 28 19 70 24 95 6 25 14 54 19 65 5 11 19 63 32 115 12 52 26 99 30
104 5 6 9 18 9 29 0 10 6 28 13 40 10 18 13 -73 17 -488 l5 -510 168 -3 167
-2 0 870 0 870 -237 -2 -238 -3 -11 -40 c-6 -22 -16 -53 -22 -68 -7 -16 -12
-31 -12 -34 0 -4 -8 -25 -18 -47 -29 -65 -44 -109 -49 -144 -3 -18 -9 -35 -14
-38 -5 -3 -9 -16 -9 -30 0 -13 -4 -24 -10 -24 -5 0 -10 -13 -10 -29 0 -17 -4
-33 -10 -36 -5 -3 -10 -19 -10 -34 0 -27 -13 -65 -45 -136 -7 -16 -17 -43 -21
-60 -4 -16 -10 -34 -14 -40 -4 -5 -11 -25 -15 -43 -4 -18 -13 -45 -21 -60 -8
-15 -17 -44 -20 -64 -4 -21 -10 -38 -15 -38 -4 0 -11 -17 -15 -37 -4 -21 -11
-47 -17 -57 -8 -17 -11 -15 -24 20 -8 21 -21 62 -29 89 -9 28 -20 54 -25 60
-5 5 -9 15 -9 23 0 8 -6 28 -14 45 -7 18 -19 52 -27 77 -7 25 -16 50 -20 55
-4 6 -10 25 -14 43 -3 17 -11 32 -16 32 -5 0 -9 12 -9 27 0 28 -11 68 -41 147
-11 27 -19 59 -19 72 0 12 -4 25 -9 29 -5 3 -13 20 -17 37 -3 18 -10 39 -15
48 -15 29 -59 150 -59 163 0 6 -8 31 -17 54 l-18 43 -227 0 -228 0 0 -865z"/>
<path d="M2218 2028 c-3 -594 -5 -657 -21 -698 -10 -24 -25 -53 -35 -63 -26
-30 -92 -57 -142 -57 -136 0 -204 73 -225 244 -4 31 -10 56 -14 56 -3 0 -77
-7 -163 -17 l-158 -17 0 -43 c0 -75 29 -195 65 -270 61 -124 174 -207 328
-240 88 -19 266 -12 347 13 178 53 300 179 347 355 15 56 17 142 20 727 l4
662 -175 0 -175 0 -3 -652z"/>
<path d="M1018 2018 c-3 -594 -5 -657 -21 -698 -10 -24 -25 -53 -35 -63 -26
-30 -92 -57 -142 -57 -136 0 -204 73 -225 244 -4 31 -10 56 -14 56 -3 0 -77
-7 -163 -17 l-158 -17 0 -43 c0 -75 29 -195 65 -270 61 -124 172 -206 325
-239 91 -19 267 -14 350 11 140 42 254 138 313 262 l32 68 3 708 3 707 -165 0
-165 0 -3 -652z"/>
<path d="M442 573 c-23 -9 -51 -77 -40 -96 5 -10 7 -25 4 -33 -3 -9 8 -29 29
-49 l34 -35 2595 0 2595 0 15 32 c18 35 21 113 6 123 -5 3 -10 15 -10 26 0 12
-10 23 -26 29 -26 10 -5177 13 -5202 3z"/>
</g>
</svg>
